<?xml version="1.0" encoding="UTF-8"?><svg id="Capa_1" xmlns="http://www.w3.org/2000/svg" viewBox="0 0 377.34 131.63"><defs><style>.cls-1{fill:#fcfcfc;}</style></defs><path class="cls-1" d="M143.05,21.45h-.01c-3.67-5.04-9.6-8.05-15.85-8.05h-3.05c-8.61,0-16.13,5.53-18.72,13.73,0,0-3.37,10.73-5.49,17.44-2.15-6.72-5.6-17.51-5.6-17.51-2.61-8.17-10.11-13.66-18.69-13.66h-4.75c-8.57,0-16.08,5.47-18.7,13.63,0,0-3.37,10.49-5.51,17.16-2.06-6.63-5.25-16.95-5.25-16.95-2.55-8.27-10.09-13.84-18.74-13.84h-3.07c-6.2,0-12.12,3-15.8,7.99C.13,26.4-.97,32.93,.88,38.86L25.44,117.84c2.56,8.24,10.08,13.78,18.74,13.78h4.3c8.53,0,16.02-5.45,18.66-13.56,0,0,3.9-11.98,6.15-18.88,2.23,6.91,6.09,18.86,6.09,18.86,2.63,8.14,10.13,13.58,18.67,13.58h3.98c8.58,0,16.1-5.49,18.71-13.67l25.17-78.97c1.89-5.95,.83-12.49-2.85-17.54Zm-41.02,97.31h-3.98c-2.95,0-5.53-1.88-6.43-4.67l-18.3-56.61-18.41,56.63c-.91,2.78-3.49,4.66-6.43,4.66h-4.29c-2.98,0-5.57-1.91-6.44-4.74L13.18,35.03c-.65-2.05-.26-4.28,1-6,1.28-1.74,3.31-2.77,5.44-2.77h3.07c2.97,0,5.57,1.92,6.46,4.76l17.3,55.98,17.99-56.04c.91-2.81,3.49-4.7,6.44-4.7h4.76c2.95,0,5.54,1.89,6.43,4.71l17.93,56.15,17.69-56.14c.9-2.82,3.49-4.73,6.45-4.73h3.05c2.16,0,4.2,1.04,5.47,2.78,1.26,1.73,1.63,3.98,.97,6.03l-25.17,78.98c-.89,2.81-3.47,4.7-6.44,4.7Z"/><path class="cls-1" d="M361.98,52c-1.46-6.69-3.85-12.85-7.11-18.34-3.41-5.75-8.04-10.37-13.74-13.72-5.74-3.41-12.65-5.12-20.5-5.12s-14.77,1.71-20.52,5.12c-5.69,3.37-10.32,7.98-13.73,13.72-3.25,5.49-5.64,11.65-7.1,18.34-.96,4.44-1.57,9.04-1.89,13.8-1.28-1.68-2.65-3.27-4.21-4.71-3.79-3.55-8.14-6.32-12.95-8.24-4.83-1.94-9.81-2.89-14.83-2.89-4.54,0-8.98,.74-13.2,2.22-4.19,1.47-8.03,3.54-11.45,6.15-.87,.69-1.63,1.49-2.46,2.25h0c.92-6.15,2.6-11.88,4.98-17.04,2.25-4.87,5.3-8.67,9.33-11.59,3.85-2.79,8.61-4.14,14.57-4.14,2.49,0,4.98,.3,7.44,.9,2.3,.56,1.92,.61,4.47,1.22l2.67,.86c1.33,.43,2.95,.36,4.16-.31,1.23-.67,2.29-1.74,2.63-3.09l.76-2.94c.61-2.44-.69-4.97-3.05-5.9-8.02-3.14-13.21-3.58-18.91-3.71-8.04-.17-15.06,1.91-20.86,5.67-5.67,3.68-10.24,8.64-13.57,14.76-2.14,3.9-3.86,8.13-5.19,12.58,.07-.97,.12-1.98,.12-3.01,0-5.22-1.09-9.84-3.24-13.78-1.66-3.01-3.93-5.47-6.5-7.62-.75-.63-1.39-1.36-2.22-1.92-3.47-2.31-7.42-4.03-11.77-5.1-4.18-1.05-8.63-1.58-13.2-1.58-12.02,0-21.72,3.31-28.84,9.83h0c-4.13,4.21-6.02,6.98-9.06,13.12-1.23,2.5-.37,5.49,2.07,6.79l2.59,1.39c2.44,1.31,5.53,.4,6.79-2.08,1.58-3.1,2.97-6.2,6.5-9.73,4.44-4.46,11.39-6.35,19.96-6.35,3.39,0,6.65,.34,9.67,1.06,2.82,.66,5.35,1.72,7.57,3.14,.27,.19,.49,.43,.75,.62,1.65,1.23,3.03,2.66,4.08,4.48,1.16,2.06,1.8,4.7,1.89,7.82,0,3.02-.59,5.7-1.74,7.85-1.16,2.18-2.67,3.87-4.58,5.16-2.11,1.42-4.5,2.48-7.13,3.11-2.78,.7-5.75,1.06-8.81,1.06h-7.35c-2.77,0-5.01,2.23-5.01,5.01v2.94c0,2.76,2.24,5.01,5.01,5.01h7.35c7.69,.27,13.9,2.14,18.3,5.55,4,3.12,5.95,7.92,5.95,14.64,0,3.44-.66,6.45-2.01,9.16-1.38,2.77-3.2,5-5.58,6.85-2.46,1.93-5.34,3.41-8.55,4.43-3.17,1-6.53,1.51-9.97,1.53-8.48-.03-15.37-1.92-19.79-6.33-3.52-3.53-4.91-6.63-6.5-9.74-1.25-2.48-4.34-3.37-6.79-2.06l-2.59,1.39c-2.44,1.3-3.3,4.3-2.07,6.78,3.04,6.16,4.93,8.93,9.06,13.12h0c6.33,5.82,14.83,8.93,25.08,9.57v.06c1.09,.06,2.1,.23,3.22,.23,.13,0,.25-.03,.38-.03,.05,0,.11,.02,.16,.02,4.57,0,9.02-.53,13.2-1.58,4.34-1.09,8.29-2.79,11.77-5.12,.83-.56,1.47-1.28,2.22-1.91l-.37-.39s.06-.04,.07-.06c3.77-3.05,6.73-6.83,8.86-11.24,.67-1.38,1.19-2.82,1.64-4.3,.93,2.22,2.02,4.36,3.3,6.32,3.3,5,7.93,9.31,13.72,12.82,5.96,3.61,12.74,5.45,20.13,5.45,5.22,0,10.33-1.02,15.2-2.98,4.87-1.99,9.25-4.83,12.99-8.44,3.76-3.65,6.74-7.97,8.84-12.84,.2-.46,.34-.93,.52-1.4,1.02,2.35,2.12,4.66,3.4,6.82,3.42,5.75,8.03,10.36,13.73,13.73,5.75,3.4,12.65,5.12,20.52,5.12s14.76-1.72,20.5-5.12c5.71-3.37,10.33-7.98,13.74-13.73,3.26-5.49,5.65-11.65,7.11-18.34,1.42-6.5,2.12-13.43,2.12-20.53s-.71-14.01-2.12-20.52Zm-157.96,23.81c-.81-1.07-1.69-2.09-2.66-3.04-1.72-1.63-3.62-2.98-5.59-4.18,1.63-1.08,3.18-2.29,4.57-3.71,2.29-2.35,4.04-5.07,5.27-8.11-1.03,6-1.59,12.25-1.59,18.6v.44Zm66.57,24.74c-1.4,3.3-3.37,6.23-5.85,8.77-2.46,2.5-5.39,4.47-8.7,5.85-3.31,1.39-6.88,2.08-10.62,2.08s-7.18-.69-10.43-2.06c-3.29-1.39-6.23-3.37-8.76-5.9-2.52-2.51-4.51-5.44-5.89-8.73-1.38-3.25-2.06-6.76-2.06-10.47s.68-7.25,2.07-10.56c1.39-3.31,3.35-6.23,5.85-8.68,2.54-2.5,5.49-4.46,8.79-5.85,3.25-1.37,6.76-2.08,10.43-2.08s7.31,.7,10.62,2.09c3.33,1.37,6.26,3.32,8.72,5.79,2.47,2.46,4.41,5.4,5.81,8.72,1.37,3.31,2.08,6.86,2.08,10.56s-.7,7.21-2.08,10.47Zm78.91-11.17c-1.03,5.23-2.81,10.1-5.29,14.46-2.35,4.14-5.42,7.36-9.38,9.83-3.8,2.38-8.59,3.58-14.2,3.58s-10.4-1.2-14.21-3.58h0c-3.96-2.46-7.04-5.69-9.37-9.83-2.48-4.36-4.26-9.23-5.3-14.46-1.07-5.45-1.63-11.12-1.63-16.87s.56-11.52,1.63-16.92c1.04-5.19,2.82-10.03,5.3-14.39,2.34-4.16,5.42-7.35,9.37-9.83,3.82-2.39,8.6-3.58,14.21-3.58s10.43,1.2,14.31,3.59c3.99,2.46,7.04,5.66,9.35,9.79,2.43,4.36,4.19,9.21,5.22,14.42,1.09,5.4,1.63,11.1,1.63,16.92s-.55,11.41-1.63,16.87Z"/><path class="cls-1" d="M377.34,10.61c0,5.86-4.74,10.6-10.6,10.6s-10.59-4.74-10.59-10.6,4.73-10.61,10.59-10.61,10.6,4.76,10.6,10.61Z"/></svg>